<svg width="132" height="48" viewBox="0 0 132 48" fill="none" xmlns="http://www.w3.org/2000/svg">
<g style="mix-blend-mode:luminosity" filter="url(#filter0_d_333_1358)">
<path fill-rule="evenodd" clip-rule="evenodd" d="M80.6508 37.8069C73.4708 42.4973 63.0639 44.9998 54.1036 44.9998C41.54 44.9998 30.2295 40.8814 21.6726 34.0316C21.0003 33.493 21.6027 32.7589 22.4094 33.1784C31.644 37.9403 43.062 40.8051 54.8566 40.8051C62.8111 40.8051 71.5615 39.3465 79.6074 36.3196C80.8229 35.862 81.8394 37.0251 80.6508 37.8069Z" fill="#FF9900"/>
<path fill-rule="evenodd" clip-rule="evenodd" d="M83.6359 34.78C82.7215 33.7409 77.5692 34.2891 75.2565 34.5322C74.552 34.6084 74.4444 34.065 75.079 33.6741C79.1827 31.1144 85.9162 31.8533 86.7015 32.7113C87.4867 33.574 86.4971 39.5563 82.6409 42.4115C82.0493 42.8501 81.4846 42.6165 81.7481 42.035C82.614 40.1187 84.5555 35.8239 83.6359 34.78Z" fill="#FF9900"/>
<path fill-rule="evenodd" clip-rule="evenodd" d="M75.4182 15.6036V13.1154C75.4182 12.7388 75.7409 12.4862 76.1282 12.4862H88.6972C89.1006 12.4862 89.4233 12.7436 89.4233 13.1154V15.2461C89.4179 15.6036 89.0791 16.0708 88.4767 16.8096L81.9636 25.0513C84.3838 24.9988 86.9385 25.3182 89.1328 26.4145C89.6276 26.6624 89.7621 27.0247 89.7998 27.3822V30.0373C89.7998 30.3995 89.348 30.8238 88.8747 30.6045C85.0077 28.8074 79.8715 28.612 75.5957 30.6236C75.1601 30.8333 74.7029 30.4138 74.7029 30.0516V27.53C74.7029 27.1248 74.7083 26.4336 75.1655 25.8187L82.7112 16.2281H76.1443C75.7409 16.2281 75.4182 15.9754 75.4182 15.6036Z" fill="black"/>
<path fill-rule="evenodd" clip-rule="evenodd" d="M29.5684 31.1289H25.7444C25.3787 31.105 25.0883 30.8619 25.0614 30.5521V13.1583C25.0614 12.8104 25.3895 12.5339 25.7982 12.5339H29.364C29.7351 12.5482 30.0309 12.8008 30.0578 13.1154V15.3892H30.1277C31.0582 13.1917 32.8061 12.1669 35.1618 12.1669C37.5551 12.1669 39.0503 13.1917 40.1259 15.3892C41.051 13.1917 43.1539 12.1669 45.4074 12.1669C47.0101 12.1669 48.7635 12.7532 49.8337 14.0688C51.0439 15.5322 50.7964 17.6581 50.7964 19.5219L50.7911 30.4997C50.7911 30.8476 50.463 31.1289 50.0543 31.1289H46.2357C45.8538 31.105 45.5473 30.8333 45.5473 30.4997V21.2808C45.5473 20.5468 45.6225 18.7163 45.4397 18.0204C45.1546 16.8526 44.2995 16.5236 43.1916 16.5236C42.2665 16.5236 41.2984 17.0718 40.9058 17.9489C40.5132 18.826 40.5508 20.2941 40.5508 21.2808V30.4997C40.5508 30.8476 40.2228 31.1289 39.814 31.1289H35.9954C35.6082 31.105 35.307 30.8333 35.307 30.4997L35.3016 21.2808C35.3016 19.3408 35.662 16.4855 32.9459 16.4855C30.1976 16.4855 30.3052 19.2693 30.3052 21.2808V30.4997C30.3052 30.8476 29.9771 31.1289 29.5684 31.1289Z" fill="black"/>
<path fill-rule="evenodd" clip-rule="evenodd" d="M100.244 12.1669C105.918 12.1669 108.989 16.4855 108.989 21.9768C108.989 27.2821 105.596 31.4911 100.244 31.4911C94.6723 31.4911 91.639 27.1725 91.639 21.7909C91.639 16.3759 94.71 12.1669 100.244 12.1669ZM100.276 15.7181C97.4583 15.7181 97.2808 19.1215 97.2808 21.2427C97.2808 23.3686 97.2431 27.9066 100.244 27.9066C103.208 27.9066 103.347 24.2457 103.347 22.0149C103.347 20.5468 103.278 18.7926 102.777 17.4007C102.347 16.19 101.492 15.7181 100.276 15.7181Z" fill="black"/>
<path fill-rule="evenodd" clip-rule="evenodd" d="M116.347 31.1289H112.539C112.157 31.105 111.851 30.8333 111.851 30.4997L111.845 13.1011C111.878 12.7818 112.195 12.5339 112.582 12.5339H116.126C116.46 12.5482 116.734 12.7484 116.809 13.0201V15.6799H116.879C117.95 13.3013 119.45 12.1669 122.091 12.1669C123.807 12.1669 125.479 12.715 126.555 14.2166C127.555 15.6084 127.555 17.9489 127.555 19.6315V30.5807C127.512 30.8858 127.195 31.1289 126.818 31.1289H122.984C122.634 31.105 122.344 30.8762 122.306 30.5807V21.1331C122.306 19.2311 122.553 16.4474 119.913 16.4474C118.982 16.4474 118.127 17.0003 117.702 17.8393C117.164 18.9022 117.095 19.9605 117.095 21.1331V30.4997C117.089 30.8476 116.756 31.1289 116.347 31.1289Z" fill="black"/>
<path fill-rule="evenodd" clip-rule="evenodd" d="M65.3985 22.8204C65.3985 24.1408 65.4362 25.2419 64.6832 26.4146C64.0755 27.3679 63.1074 27.9542 62.0371 27.9542C60.5688 27.9542 59.7083 26.9627 59.7083 25.4993C59.7083 22.6107 62.6287 22.0864 65.3985 22.0864V22.8204ZM69.2548 31.0812C69.002 31.2814 68.6363 31.2957 68.3512 31.1622C67.0819 30.2279 66.8507 29.7942 66.1569 28.9028C64.0593 30.7999 62.5696 31.3672 59.8535 31.3672C56.6319 31.3672 54.131 29.6083 54.131 26.0857C54.131 23.3353 55.8091 21.4619 58.2078 20.5467C60.2838 19.7364 63.1827 19.5934 65.3985 19.3693V18.9308C65.3985 18.1252 65.4685 17.1719 64.9306 16.476C64.4681 15.8515 63.5753 15.5941 62.7847 15.5941C61.3272 15.5941 60.031 16.2567 59.7137 17.6295C59.6492 17.9346 59.3964 18.2349 59.0468 18.2492L55.3412 17.8964C55.0292 17.8345 54.6796 17.6104 54.7711 17.1862C55.6208 13.2012 59.6868 12 63.3225 12C65.1834 12 67.6144 12.4385 69.0827 13.6874C70.9435 15.2271 70.7661 17.2815 70.7661 19.5171V24.7986C70.7661 26.386 71.5083 27.0819 72.2074 27.9399C72.4495 28.245 72.5032 28.612 72.1913 28.8408C71.4114 29.4176 70.0238 30.4901 69.2601 31.0907L69.2548 31.0812Z" fill="black"/>
<path fill-rule="evenodd" clip-rule="evenodd" d="M15.2675 22.8204C15.2675 24.1408 15.3051 25.2419 14.5522 26.4145C13.9444 27.3679 12.9817 27.9542 11.9061 27.9542C10.4378 27.9542 9.58265 26.9627 9.58265 25.4993C9.58265 22.6107 12.5031 22.0864 15.2675 22.0864V22.8204ZM19.1237 31.0812C18.8709 31.2814 18.5052 31.2957 18.2202 31.1622C16.9509 30.2279 16.725 29.7941 16.0258 28.9028C13.9283 30.7999 12.4439 31.3672 9.72248 31.3672C6.50627 31.3672 4 29.6082 4 26.0856C4 23.3352 5.6834 21.4619 8.07673 20.5467C10.1527 19.7364 13.0516 19.5934 15.2675 19.3693V18.9308C15.2675 18.1252 15.3374 17.1719 14.805 16.4759C14.337 15.8515 13.4443 15.5941 12.659 15.5941C11.2015 15.5941 9.89997 16.2567 9.58265 17.6295C9.51811 17.9346 9.26533 18.2349 8.92112 18.2492L5.21011 17.8964C4.89817 17.8345 4.55396 17.6104 4.64001 17.1862C5.49516 13.2012 9.55576 12 13.1915 12C15.0524 12 17.4833 12.4385 18.9516 13.6874C20.8125 15.2271 20.635 17.2815 20.635 19.5171V24.7986C20.635 26.3859 21.3772 27.0819 22.0764 27.9399C22.3238 28.245 22.3776 28.612 22.0656 28.8408C21.2858 29.4176 19.8982 30.4901 19.1345 31.0907L19.1237 31.0812Z" fill="black"/>
</g>
<defs>
<filter id="filter0_d_333_1358" x="0" y="0" width="132.113" height="56" filterUnits="userSpaceOnUse" color-interpolation-filters="sRGB">
<feFlood flood-opacity="0" result="BackgroundImageFix"/>
<feColorMatrix in="SourceAlpha" type="matrix" values="0 0 0 0 0 0 0 0 0 0 0 0 0 0 0 0 0 0 127 0" result="hardAlpha"/>
<feOffset dy="4"/>
<feGaussianBlur stdDeviation="2"/>
<feComposite in2="hardAlpha" operator="out"/>
<feColorMatrix type="matrix" values="0 0 0 0 0 0 0 0 0 0 0 0 0 0 0 0 0 0 0.25 0"/>
<feBlend mode="normal" in2="BackgroundImageFix" result="effect1_dropShadow_333_1358"/>
<feBlend mode="normal" in="SourceGraphic" in2="effect1_dropShadow_333_1358" result="shape"/>
</filter>
</defs>
</svg>
